# AST/ASF file generated using VICON BodyLanguage
# -----------------------------------------------
:version 1.10
:name VICON
:units
  mass 1.0
  length 0.45
  angle deg
:documentation
   .ast/.asf automatically generated from VICON data using
   VICON BodyBuilder and BodyLanguage model FoxedUp or BRILLIANT.MOD
:root
   order TX TY TZ RX RY RZ
   axis XYZ
   position 0 0 0  
   orientation 0 0 0 
:bonedata
  begin
     id 1 
     name lhipjoint
     direction 0.570549 -0.739093 0.358072 
     length 2.41801 
     axis 0 0 0  XYZ
  end
  begin
     id 2 
     name lfemur
     direction 0.34202 -0.939693 0  
     length 7.44434  
     axis 0 0 20  XYZ
    dof rx ry rz
    limits (-160.0 20.0)
           (-70.0 70.0)
           (-60.0 70.0)
  end
  begin
     id 3 
     name ltibia
     direction 0.34202 -0.939693 0   
     length 7.60047   
     axis 0 0 20   XYZ
    dof rx
    limits (-10.0 170.0)
  end
  begin
     id 4 
     name lfoot
     direction 0.0909041 -0.249757 0.964032   
     length 2.03437   
     axis -90 7.62852e-016 20   XYZ
    dof rx rz
    limits (-45.0 90.0)
           (-70.0 20.0)
  end
  begin
     id 5 
     name ltoes
     direction 1.53547e-011 -4.2174e-011 1   
     length 1.02054   
     axis -90 7.62852e-016 20   XYZ
    dof rx
    limits (-90.0 20.0)
  end
  begin
     id 6 
     name rhipjoint
     direction -0.558096 -0.746754 0.361784   
     length 2.3932  
     axis 0 0 0  XYZ 
  end
  begin
     id 7 
     name rfemur
     direction -0.34202 -0.939693 0   
     length 7.3886   
     axis 0 0 -20   XYZ
    dof rx ry rz
    limits (-160.0 20.0)
           (-70.0 70.0)
           (-70.0 60.0)
  end
  begin
     id 8 
     name rtibia
     direction -0.34202 -0.939693 0   
     length 7.4839   
     axis 0 0 -20   XYZ
    dof rx
    limits (-10.0 170.0)
 end
 begin
     id 9 
     name rfoot
     direction -0.114619 -0.314914 0.942174   
     length 2.25127  
     axis -90 -7.62852e-016 -20   XYZ
    dof rx rz
    limits (-45.0 90.0)
           (-20.0 70.0)
  end
  begin
     id 10 
     name rtoes
     direction -1.53518e-011 -4.21881e-011 1   
     length 1.11821   
     axis -90 -7.62852e-016 -20   XYZ
    dof rx
    limits (-90.0 20.0)
  end
  begin
     id 11 
     name lowerback
     direction -0.00902269 0.996426 -0.0839821   
     length 2.25052   
     axis 0 0 0   XYZ
    dof rx ry rz
    limits (-20.0 45.0)
           (-30.0 30.0)
           (-30.0 30.0)
  end
  begin
     id 12 
     name upperback
     direction 0.0370973 0.999169 -0.0168941   
     length 2.24876   
     axis 0 0 0   XYZ
    dof rx ry rz
    limits (-20.0 45.0)
           (-30.0 30.0)
           (-30.0 30.0)
  end
  begin
     id 13 
     name thorax
     direction 0.0402726 0.998931 0.0227027   
     length 2.26408   
     axis 0 0 0   XYZ
    dof rx ry rz
    limits (-20.0 45.0)
           (-30.0 30.0)
           (-30.0 30.0)
  end
  begin
     id 14 
     name lowerneck
     direction -0.0733697 0.98508 0.155675   
     length 1.58204   
     axis 0 0 0   XYZ
    dof rx ry rz
    limits (-20.0 45.0)
           (-30.0 30.0)
           (-30.0 30.0)
  end
  begin
     id 15 
     name upperneck
     direction 0.0426554 0.993501 -0.105526   
     length 1.61222   
     axis 0 0 0   XYZ
    dof rx ry rz
    limits (-20.0 45.0)
           (-30.0 30.0)
           (-30.0 30.0)
  end
  begin
     id 16
     name head
     direction 0.020792 0.998384 -0.0528868  
     length 1.61527  
     axis 0 0 0   XYZ
    dof rx ry rz
    limits (-20.0 45.0)
           (-30.0 30.0)
           (-30.0 30.0)
  end
  begin
     id 17 
     name lclavicle
     direction 0.967109 0.155462 -0.201325  
     length 3.59357  
     axis 0 0 0   XYZ
    dof ry rz
    limits (-20.0 10.0)
           (0.0 20.0)
  end
  begin
     id 18 
     name lhumerus
     direction 1 -4.48968e-011 2.38195e-027   
     length 5.38154   
     axis 180 -30 -90   XYZ
    dof rx ry rz
    limits (-60.0 90.0)
           (-90.0 90.0)
           (-90.0 90.0)
  end
  begin
     id 19
     name lradius
     direction 1 -4.48961e-011 4.85371e-027   
     length 3.33312   
     axis 180 -30 -90   XYZ
    dof rx
    limits (-10.0 170.0)
  end
  begin
     id 20
     name lwrist
     direction 1 -4.48961e-011 4.76515e-027   
     length 1.66656   
     axis -3.27502e-015 90 90   XYZ
    dof ry
    limits (-180.0 0.0)
 end
  begin
     id 21 
     name lhand
     direction 1 -4.48951e-011 9.53074e-027   
     length 0.710789   
     axis -6.08098e-015 90 90   XYZ
    dof rx rz
    limits (-90.0 90.0)
           (-45.0 45.0)
  end
  begin
     id 22 
     name lfingers
     direction 1 -4.48953e-011 1.90613e-026   
     length 0.573057   
     axis -1.21619e-014 90 90   XYZ
    dof rx
    limits (0.0 90.0)
  end
  begin
     id 23
     name lthumb
     direction 0.707107 -6.34973e-011 0.707107   
     length 0.822798   
     axis -90 45 -9.86923e-015   XYZ
    dof rx rz
    limits (-45.0 45.0)
           (-45.0 45.0)
  end
  begin
     id 24 
     name rclavicle
     direction -0.9585 0.265289 -0.104398   
     length 3.42039  
     axis 0 0 0   XYZ 
    dof ry rz
    limits (-10.0 20.0)
           (-20.0 0.0)
  end
  begin
     id 25 
     name rhumerus
     direction -1 -4.48977e-011 2.21478e-027  
     length 5.16954   
     axis 180 30 90   XYZ
    dof rx ry rz
    limits (-90.0 60.0)
           (-90.0 90.0)
           (-90.0 90.0)
  end
  begin
     id 26 
     name rradius
     direction -1 -4.48967e-011 5.63677e-027   
     length 3.38287   
     axis 180 30 90   XYZ
    dof rx
    limits (-10.0 170.0)
  end
  begin
     id 27 
     name rwrist
     direction -1 -4.48967e-011 4.76501e-027   
     length 1.69144   
     axis -3.27502e-015 -90 -90   XYZ
    dof ry
    limits (-180.0 0.0)
  end
  begin
     id 28
     name rhand
     direction -1 -4.48902e-011 9.53292e-027   
     length 0.817967   
     axis -6.08098e-015 -90 -90   XYZ
    dof rx rz
    limits (-90.0 90.0)
           (-45.0 45.0)
  end
  begin
     id 29
     name rfingers
     direction -1 -4.49012e-011 1.90561e-026   
     length 0.659466   
     axis -1.21619e-014 -90 -90   XYZ
    dof rx
    limits (0.0 90.0)
  end
  begin
     id 30
     name rthumb
     direction -0.707107 -6.34944e-011 0.707107   
     length 0.946865   
     axis -90 -45 9.86923e-015   XYZ
    dof rx rz
    limits (-45.0 45.0)
           (-45.0 45.0)
  end
:hierarchy
  begin
    root lhipjoint rhipjoint lowerback
    lhipjoint lfemur
    lfemur ltibia
    ltibia lfoot
    lfoot ltoes
    rhipjoint rfemur
    rfemur rtibia
    rtibia rfoot
    rfoot rtoes
    lowerback upperback
    upperback thorax
    thorax lowerneck lclavicle rclavicle
    lowerneck upperneck
    upperneck head
    lclavicle lhumerus
    lhumerus lradius
    lradius lwrist
    lwrist lhand lthumb
    lhand lfingers
    rclavicle rhumerus
    rhumerus rradius
    rradius rwrist
    rwrist rhand rthumb
    rhand rfingers
  end

#!OML:ASF F:\twosubjects\two\wednesday\Session 1\Justin1.ASF
:FULLY-SPECIFIED
:DEGREES
82
root -8.86472 16.6554 -18.1569 -125.972 74.9894 -139.091
lowerback 7.18638 4.43927 6.19418
upperback 1.17275 6.64003 3.76084
thorax -2.55317 3.32171 -0.159769
lowerneck -7.65118 -14.6276 -15.3437
upperneck 10.005 -19.7272 14.165
head 7.26486 -9.33929 4.8165
rclavicle -1.92821e-014 -3.57812e-014
rhumerus 4.94372 -29.275 -51.1408
rradius 72.7472
rwrist -71.1406
rhand -22 -15.5551
rfingers 7.12502
rthumb 4.40873 -45.4892
lclavicle -1.92821e-014 -3.57812e-014
lhumerus -34.1859 22.1012 67.3915
lradius 24.4141
lwrist -18.7667
lhand 1.53208 31.9856
lfingers 7.12502
lthumb 27.057 60.0671
rfemur -3.64327 -11.6392 22.7863
rtibia 23.8859
rfoot -19.107 -23.1856
rtoes -9.41322
lfemur -40.2525 7.29073 -8.3566
ltibia 54.2275
lfoot -19.6914 -6.14267
ltoes -2.33461
83
root -8.76524 16.6445 -18.2554 -126.071 74.6589 -139.235
lowerback 7.27755 4.40088 6.21538
upperback 1.20774 6.60612 3.86122
thorax -2.57903 3.3073 -0.0724827
lowerneck -7.35684 -14.617 -15.6613
upperneck 9.92331 -19.7568 14.5156
head 7.26616 -9.35861 4.98552
rclavicle -4.90998e-014 -5.725e-014
rhumerus 4.02345 -29.6166 -49.792
rradius 73.1994
rwrist -68.6224
rhand -16.7028 -20.4342
rfingers 7.12502
rthumb 9.52211 -50.199
lclavicle -4.90998e-014 -5.725e-014
lhumerus -34.3218 22.8172 67.0867
lradius 24.2904
lwrist -19.3126
lhand 1.52569 31.3238
lfingers 7.12502
lthumb 27.0509 59.4063
rfemur -3.43887 -11.442 22.7321
rtibia 24.1996
rfoot -19.1182 -23.4363
rtoes -7.21264
lfemur -40.2322 7.78281 -8.67383
ltibia 54.5702
lfoot -19.8423 -6.45438
ltoes -0.418876
84
root -8.66123 16.6513 -18.3721 -127.233 74.4224 -140.628
lowerback 7.06503 4.2784 6.07128
upperback 1.27916 6.40655 3.84319
thorax -2.40809 3.21493 0.0250839
lowerneck -7.45619 -14.6852 -15.5848
upperneck 10.12 -19.841 14.3504
head 7.33225 -9.39768 4.89889
rclavicle 5.42682e-014 -1.66979e-014
rhumerus 3.20766 -29.8385 -48.4572
rradius 73.3746
rwrist -65.197
rhand -11.3216 -24.2196
rfingers 7.12502
rthumb 14.7107 -53.6777
lclavicle 5.42682e-014 -1.66979e-014
lhumerus -34.4155 23.5713 66.7175
lradius 24.2745
lwrist -19.9969
lhand 1.66199 30.828
lfingers 7.12502
lthumb 27.1813 58.8902
rfemur -3.52938 -11.6983 22.3132
rtibia 24.7094
rfoot -18.1322 -23.7967
rtoes -9.15351
lfemur -40.0193 7.65204 -9.30101
ltibia 54.7389
lfoot -20.7566 -6.17619
ltoes -1.57698
85
root -8.55818 16.6577 -18.4813 -130.094 74.5886 -143.843
lowerback 6.86981 4.06485 5.0435
upperback 1.28729 6.01023 3.67798
thorax -2.39214 3.02014 0.460989
lowerneck -7.49846 -14.6343 -15.2966
upperneck 10.2249 -19.7859 14.2005
head 7.3181 -9.3662 4.81856
rclavicle 4.96962e-015 -1.82882e-014
rhumerus 2.40363 -29.3035 -47.426
rradius 73.8296
rwrist -64.8234
rhand -9.55279 -24.3841
rfingers 7.12502
rthumb 16.4143 -53.7096
lclavicle 4.96962e-015 -1.82882e-014
lhumerus -34.7107 24.0632 66.2135
lradius 24.4717
lwrist -20.3432
lhand 2.16165 30.7724
lfingers 7.12502
lthumb 27.6592 58.7589
rfemur -3.77412 -12.5384 21.2164
rtibia 25.4475
rfoot -16.5127 -24.0509
rtoes -13.306
lfemur -39.9008 7.57921 -10.6103
ltibia 54.7385
lfoot -21.3331 -6.32031
ltoes -1.14295
86
root -8.4509 16.6498 -18.5988 -131.258 74.1147 -145.016
lowerback 7.06388 3.77695 5.01033
upperback 1.21381 5.64938 3.74996
thorax -2.59621 2.837 0.56302
lowerneck -7.18368 -14.4979 -15.2056
upperneck 10.2222 -19.6396 14.1744
head 7.2296 -9.30951 4.8453
rclavicle 4.7112e-014 -4.05521e-014
rhumerus 1.2994 -27.9212 -46.2496
rradius 74.8068
rwrist -68.8137
rhand -13.1401 -22.0695
rfingers 7.12502
rthumb 12.9581 -51.6471
lclavicle 4.7112e-014 -4.05521e-014
lhumerus -35.1806 24.5646 65.6854
lradius 24.3547
lwrist -20.7046
lhand 2.5268 30.674
lfingers 7.12502
lthumb 28.0083 58.604
rfemur -3.83419 -12.8292 20.953
rtibia 26.4591
rfoot -16.2405 -24.3317
rtoes -12.655
lfemur -39.7655 7.23765 -10.8446
ltibia 54.5966
lfoot -20.913 -7.14661
ltoes 4.81356
87
root -8.34034 16.6338 -18.7258 -132.169 73.9634 -145.859
lowerback 7.22256 3.66912 4.92582
upperback 1.22583 5.51007 3.73481
thorax -2.68169 2.76642 0.593971
lowerneck -6.97433 -14.4649 -15.1458
upperneck 10.2678 -19.6218 14.1318
head 7.19505 -9.3101 4.84094
rclavicle 6.52014e-014 1.43125e-014
rhumerus 0.0971525 -27.0266 -44.9631
rradius 75.6792
rwrist -72.6748
rhand -17.2815 -19.5754
rfingers 7.12502
rthumb 8.9637 -49.365
lclavicle 6.52014e-014 1.43125e-014
lhumerus -35.252 24.4681 65.5601
lradius 24.0601
lwrist -20.5868
lhand 2.62356 30.4798
lfingers 7.12502
lthumb 28.1008 58.3947
rfemur -3.85939 -12.8321 20.3426
rtibia 27.6505
rfoot -16.4855 -24.1215
rtoes -9.3534
lfemur -39.1516 7.29258 -11.4562
ltibia 54.4951
lfoot -21.3181 -6.77163
ltoes 1.48253
88
root -8.23116 16.6138 -18.849 -131.746 73.979 -145.621
lowerback 6.98692 3.60646 4.73992
upperback 1.27067 5.39143 3.74339
thorax -2.52412 2.71264 0.733679
lowerneck -6.90997 -14.3313 -15.1414
upperneck 10.3342 -19.4818 14.3328
head 7.20704 -9.23159 4.93054
rclavicle 1.53064e-014 4.65156e-014
rhumerus -0.658634 -26.7282 -44.2009
rradius 76.1854
rwrist -74.6807
rhand -18.5323 -17.9782
rfingers 7.12502
rthumb 7.75656 -47.816
lclavicle 1.53064e-014 4.65156e-014
lhumerus -35.2035 24.2465 65.4364
lradius 23.8525
lwrist -20.2509
lhand 2.48644 30.5953
lfingers 7.12502
lthumb 27.9697 58.5316
rfemur -4.37092 -12.6304 19.9363
rtibia 28.8956
rfoot -15.9428 -24.0644
rtoes -7.21392
lfemur -38.7087 7.53559 -11.9797
ltibia 54.31
lfoot -21.9013 -5.45789
ltoes -8.43193
89
root -8.11919 16.6147 -18.98 -131.069 74.0791 -145.047
lowerback 6.78611 3.50847 4.78734
upperback 1.40157 5.2342 3.62188
thorax -2.26343 2.6387 0.615806
lowerneck -7.05205 -14.1747 -15.0481
upperneck 10.5524 -19.3251 14.6196
head 7.30115 -9.12235 5.02233
rclavicle 9.54166e-015 3.57812e-014
rhumerus -0.745579 -28.6248 -43.982
rradius 74.9794
rwrist -66.5909
rhand -7.30835 -22.0117
rfingers 7.12502
rthumb 18.5742 -51.1449
lclavicle 9.54166e-015 3.57812e-014
lhumerus -35.0106 24.3898 64.9782
lradius 23.5408
lwrist -20.1561
lhand 2.64011 30.7331
lfingers 7.12502
lthumb 28.1166 58.6454
rfemur -4.88108 -12.2898 19.5283
rtibia 30.1045
rfoot -14.7121 -24.1641
rtoes -4.8672
lfemur -38.1151 7.24919 -12.1901
ltibia 54.2264
lfoot -22.5748 -4.71688
ltoes -13.3208
90
root -8.00102 16.6128 -19.1176 -134.403 74.2249 -147.917
lowerback 7.39477 3.33007 4.50276
upperback 1.5044 4.98807 3.22983
thorax -2.48899 2.50747 0.352103
lowerneck -7.02001 -14.2377 -14.6766
upperneck 10.8693 -19.4507 14.3787
head 7.35204 -9.17575 4.87326
rclavicle -3.24019e-014 -8.22969e-014
rhumerus -2.0582 -28.2671 -43.2908
rradius 75.6039
rwrist -69.2179
rhand -10.4876 -19.5459
rfingers 7.12502
rthumb 15.5141 -48.9435
lclavicle -3.24019e-014 -8.22969e-014
lhumerus -34.8639 24.0667 64.4576
lradius 23.2032
lwrist -20.2349
lhand 3.32574 30.4205
lfingers 7.12502
lthumb 28.7718 58.2233
rfemur -4.60384 -12.8451 18.0452
rtibia 31.4929
rfoot -12.9896 -23.9878
rtoes -1.76659
lfemur -36.7463 6.06128 -13.0028
ltibia 53.9317
lfoot -22.9079 -5.24809
ltoes -10.1538
91
root -7.89501 16.6088 -19.2662 -130.75 73.1767 -144.26
lowerback 7.8825 3.4087 6.65867
upperback 0.954533 5.35016 3.24287
thorax -3.13134 2.64482 -0.902913
lowerneck -6.24679 -14.3957 -14.5365
upperneck 11.1413 -19.7613 14.1905
head 7.31759 -9.35701 4.79472
rclavicle -4.1546e-014 -1.43125e-014
rhumerus -4.60203 -27.2702 -41.8307
rradius 76.6969
rwrist -73.9266
rhand -16.2869 -15.368
rfingers 7.12502
rthumb 9.92339 -45.1141
lclavicle -4.1546e-014 -1.43125e-014
lhumerus -35.2002 23.3095 63.8564
lradius 22.9818
lwrist -20.8815
lhand 3.65325 30.0873
lfingers 7.12502
lthumb 29.0846 57.8365
rfemur -5.44184 -12.5538 19.2339
rtibia 32.948
rfoot -10.0659 -24.7365
rtoes -1.80232
lfemur -36.2742 5.48741 -11.504
ltibia 53.6997
lfoot -23.0061 -5.86177
ltoes -7.38796
92
root -7.77832 16.6241 -19.3958 -133.329 73.6664 -146.854
lowerback 7.59175 3.20075 5.25429
upperback 1.30255 4.91757 3.42117
thorax -2.76483 2.46256 0.121231
lowerneck -6.60883 -14.3893 -14.952
upperneck 11.3565 -19.6718 14.08
head 7.46619 -9.31764 4.8011
rclavicle 3.73715e-014 3.61788e-014
rhumerus -4.51447 -26.9884 -41.1656
rradius 76.9091
rwrist -74.0416
rhand -16.4404 -14.5107
rfingers 7.12502
rthumb 9.77532 -44.2639
lclavicle 3.73715e-014 3.61788e-014
lhumerus -35.4584 25.3677 63.4262
lradius 22.6966
lwrist -22.3605
lhand 3.42808 29.9524
lfingers 7.12502
lthumb 28.8695 57.7385
rfemur -6.14066 -12.244 17.8497
rtibia 34.7109
rfoot -7.30356 -25.3525
rtoes -0.755627
lfemur -35.3261 4.59371 -12.5563
ltibia 53.1557
lfoot -23.4435 -6.12104
ltoes -7.69343
